<svg width="132" height="42" viewBox="0 0 132 42" fill="none" xmlns="http://www.w3.org/2000/svg">
<path d="M32.94 41.2164C32.9183 41.2164 32.8962 41.2164 32.8741 41.2164L8.75926 40.9849C5.31392 40.9514 2.47002 38.5808 2.14352 35.4713L0.023676 15.238C-0.100751 14.0499 0.268151 12.8763 1.0621 11.9314C1.95081 10.8745 3.29581 10.2107 4.75191 10.1104C6.78356 9.97204 9.64479 9.72797 12.6736 9.47036C19.0515 8.92706 26.9895 8.25156 31.4558 8.19542C34.6963 8.17909 37.445 10.0969 38.2085 12.9187C39.4649 17.5633 39.3546 26.3554 39.1153 35.7215C39.0381 38.7645 36.274 41.2164 32.94 41.2164ZM4.87853 11.9589C3.92093 12.024 3.04676 12.4488 2.47977 13.1233C2.01192 13.6794 1.79392 14.362 1.86539 15.0447L3.98524 35.2779C4.21299 37.4515 6.27331 39.1089 8.77718 39.1332L32.892 39.3645C32.9079 39.3645 32.924 39.3645 32.9404 39.3645C35.2772 39.3645 37.2121 37.7181 37.2644 35.6747C37.4996 26.4504 37.612 17.8068 36.4209 13.4016C35.887 11.4279 33.8332 10.0545 31.4793 10.0473C27.0795 10.1024 19.1791 10.7752 12.8309 11.3159C9.7939 11.5745 6.9251 11.8187 4.87853 11.9589Z" fill="#010101"/>
<path d="M8.4999 17.2211C10.2903 16.1706 12.5941 16.7975 13.6054 18.6101L18.3619 27.1365C18.8381 27.9899 20.0836 27.936 20.4839 27.0445L32.2814 0.779787C32.8699 -0.530382 34.8211 -0.0874096 34.7996 1.34858C34.6942 8.3824 33.0471 20.9639 24.0236 32.566C21.5941 35.6896 17.2979 36.3889 14.5061 33.5844C12.1931 31.2608 9.43454 27.6545 6.94008 22.1769C6.11707 20.3702 6.78759 18.2261 8.4999 17.2211Z" fill="#010101"/>
<path d="M79.3091 41.2164C79.2874 41.2164 79.2653 41.2164 79.2432 41.2164L55.1284 40.9849C51.6831 40.9514 48.8389 38.5808 48.5126 35.4713L46.3928 15.238C46.2684 14.0499 46.6375 12.8763 47.4312 11.9314C48.3199 10.8745 49.6649 10.2107 51.121 10.1104C53.1527 9.97204 56.0139 9.72797 59.0428 9.47036C65.4208 8.92706 73.3589 8.25156 77.8249 8.19542C81.0654 8.17909 83.8141 10.0969 84.5776 12.9187C85.834 17.5633 85.7238 26.3554 85.4845 35.7215C85.4072 38.7645 82.6433 41.2164 79.3091 41.2164ZM51.2477 11.9589C50.2901 12.024 49.4159 12.4488 48.8489 13.1233C48.3811 13.6794 48.1631 14.362 48.2345 15.0447L50.3544 35.2779C50.5821 37.4515 52.6424 39.1089 55.1465 39.1332L79.2613 39.3645C79.277 39.3645 79.2934 39.3645 79.3097 39.3645C81.6465 39.3645 83.5814 37.7181 83.6338 35.6747C83.8689 26.4504 83.9814 17.8068 82.7903 13.4016C82.2563 11.4279 80.2026 10.0545 77.8486 10.0473C73.4491 10.1024 65.5484 10.7752 59.2003 11.3159C56.1632 11.5745 53.2942 11.8187 51.2477 11.9589Z" fill="#010101"/>
<path d="M54.8672 17.2211C56.6575 16.1706 58.9613 16.7975 59.9727 18.6101L64.7292 27.1365C65.2054 27.9899 66.4509 27.936 66.8512 27.0445L78.6487 0.779787C79.2372 -0.530382 81.1884 -0.0874096 81.1667 1.34858C81.0613 8.3824 79.4142 20.9639 70.3906 32.566C67.9612 35.6896 63.665 36.3889 60.8732 33.5844C58.5602 31.2608 55.8016 27.6545 53.3072 22.1769C52.4844 20.3702 53.1547 18.2261 54.8672 17.2211Z" fill="#010101"/>
<path d="M125.674 41.2184C125.653 41.2184 125.631 41.2184 125.608 41.2184L101.494 40.9868C98.0483 40.9534 95.2044 38.5827 94.8779 35.4732L92.758 15.2399C92.6336 14.0518 93.0027 12.8782 93.7965 11.9334C94.6852 10.8764 96.0302 10.2127 97.4863 10.1124C99.5179 9.97399 102.379 9.72992 105.408 9.47231C111.786 8.92901 119.724 8.25351 124.19 8.19737C127.431 8.18104 130.179 10.0988 130.943 12.9206C132.199 17.5652 132.089 26.3574 131.85 35.7235C131.772 38.7665 129.008 41.2184 125.674 41.2184ZM97.6129 11.9609C96.6553 12.026 95.7811 12.4508 95.2141 13.1253C94.7463 13.6813 94.5283 14.364 94.5998 15.0466L96.7196 35.2799C96.9475 37.4535 99.0077 39.1109 101.512 39.1352L125.627 39.3665C125.642 39.3665 125.659 39.3665 125.675 39.3665C128.012 39.3665 129.947 37.7201 129.999 35.6767C130.234 26.4523 130.347 17.8087 129.155 13.4036C128.622 11.4299 126.568 10.0564 124.214 10.0492C119.814 10.1044 111.914 10.7771 105.565 11.3178C102.528 11.5764 99.6595 11.8207 97.6129 11.9609Z" fill="#010101"/>
</svg>
