<svg width="101" height="77" viewBox="0 0 101 77" fill="none" xmlns="http://www.w3.org/2000/svg">
<path d="M12.4025 9.04952L23.438 8.99377L27.4632 9.06732L34.747 9.20041L39.9223 9.29497L62.6759 6.90347L80.6631 2.93842C87.5636 1.4173 94.1328 6.58357 94.2812 13.6482L92.8824 27.1868L92.6002 32.778C92.4475 35.8043 92.6404 38.8381 93.1753 41.8206L95.2599 53.4453C95.8499 56.7357 95.0682 60.1243 93.0964 62.8238C90.7812 65.9934 87.0862 67.8601 83.1611 67.843L58.5683 67.7362C54.9571 67.7205 51.3519 68.0287 47.7958 68.6571L20.4129 73.496C15.8931 73.971 11.844 70.6921 11.369 66.1724L8.91801 42.8528C8.52967 39.158 7.22044 35.6197 5.11024 32.562L4.23713 31.2968C2.69984 29.0692 1.74606 26.4916 1.46315 23.7999L1.2243 21.5273C0.873842 18.193 2.02255 14.8752 4.35974 12.4713C6.47295 10.2978 9.37103 9.06483 12.4025 9.04952Z" fill="#CCB8FF"/>
<ellipse cx="37.1657" cy="33.3788" rx="6.23296" ry="7.96434" transform="rotate(-96 37.1657 33.3788)" fill="white"/>
<mask id="mask0_507_358" style="mask-type:alpha" maskUnits="userSpaceOnUse" x="29" y="27" width="17" height="13">
<ellipse cx="37.1657" cy="33.3788" rx="6.23296" ry="7.96434" transform="rotate(-96 37.1657 33.3788)" fill="white"/>
</mask>
<g mask="url(#mask0_507_358)">
<ellipse cx="38.858" cy="36.9813" rx="5.1089" ry="5.10357" transform="rotate(-96 38.858 36.9813)" fill="#010101"/>
</g>
<circle cx="34.2711" cy="33.6443" r="2.07233" transform="rotate(-96 34.2711 33.6443)" fill="white" fill-opacity="0.26"/>
<ellipse cx="62.4674" cy="30.7206" rx="6.23296" ry="7.96434" transform="rotate(-96 62.4674 30.7206)" fill="white"/>
<mask id="mask1_507_358" style="mask-type:alpha" maskUnits="userSpaceOnUse" x="54" y="24" width="17" height="13">
<ellipse cx="62.4674" cy="30.7197" rx="6.23296" ry="7.96434" transform="rotate(-96 62.4674 30.7197)" fill="white"/>
</mask>
<g mask="url(#mask1_507_358)">
<ellipse cx="63.3243" cy="35.0995" rx="5.1089" ry="5.10357" transform="rotate(-96 63.3243 35.0995)" fill="#010101"/>
</g>
<circle cx="65.6378" cy="31.1355" r="2.07233" transform="rotate(-96 65.6378 31.1355)" fill="white" fill-opacity="0.26"/>
<path d="M60.0589 50.8886L59.8166 51.152C55.3263 56.0321 48.3381 57.7265 42.1114 55.4448" stroke="#88819A" stroke-width="3" stroke-linecap="round"/>
<path d="M30.2049 12.1992C29.5778 6.69137 33.8859 1.86497 39.4293 1.86497H45.9387L54.6337 0.934542C58.7462 0.494472 62.4988 3.30952 63.227 7.38087L59.023 8.31592C59.023 5.9715 57.0085 4.13399 54.6739 4.349L52.4809 4.55099L45.9387 5.15354L39.7682 5.15355C36.1171 5.15355 33.5488 8.74393 34.7281 12.1992H30.2049Z" fill="#CCB8FF"/>
</svg>
