<svg width="1115" height="1115" viewBox="0 0 1115 1115" fill="none" xmlns="http://www.w3.org/2000/svg">
<rect width="1114.74" height="1114.74" fill="#CCB8FF"/>
<path d="M295.457 483.888C283.14 486.907 274.411 492.216 269.272 499.815C264.141 507.419 261.096 517.007 260.132 528.588C268.463 528.588 274.893 528.588 279.421 528.588C283.957 528.588 287.748 528.512 289.675 528.512L293.289 554.863C293.289 554.863 290.812 554.893 287.311 555.013C283.807 555.133 279.606 555.224 274.708 555.284C269.818 555.344 264.958 555.374 260.132 555.374C260.253 556.95 260.373 558.525 260.494 560.097C260.614 561.661 260.735 563.285 260.855 564.97C261.457 571.61 262.511 578.972 264.017 587.064C265.53 595.148 267.435 603.048 269.724 610.767C272.02 618.487 274.501 625.303 277.162 631.222H244.909C243.211 627.108 241.581 622.25 240.015 616.648C238.449 611.034 237.056 605.123 235.844 598.915C234.64 592.7 233.608 586.635 232.758 580.717C231.914 574.802 231.312 569.493 230.951 564.789C229.626 547.895 229.686 532.268 231.131 517.909C232.584 503.553 235.758 490.822 240.648 479.722C245.545 468.622 252.491 459.576 261.487 452.574C270.492 445.577 281.815 441.05 295.457 438.993V483.888Z" fill="#010101"/>
<path d="M328.991 480.504C337.553 478.766 344.837 478.799 350.841 480.609C356.851 482.41 361.646 485.44 365.221 489.705C368.796 493.972 371.184 499.058 372.384 504.959C373.762 511.687 373.332 517.642 371.091 522.817C368.857 527.995 365.292 532.488 360.393 536.297C355.492 540.098 349.72 543.311 343.083 545.94C336.441 548.568 329.449 550.631 322.109 552.126C317.311 553.1 312.369 553.886 307.288 554.492C302.203 555.099 293.289 554.946 293.289 554.946L289.675 528.595H290.76L295.321 528.683C294.203 520.636 295.325 514.567 297.786 507.646C300.254 500.717 304.159 494.855 309.504 490.052C314.845 485.241 321.34 482.06 328.991 480.504ZM327.557 528.098C331.64 527.273 335.274 526.109 338.465 524.61C341.662 523.104 344.112 521.193 345.813 518.88C347.522 516.57 348.059 513.833 347.416 510.678C346.773 507.514 344.922 505.208 341.871 503.763C338.816 502.319 335.551 501.95 332.074 502.649C328.618 503.361 325.799 505.026 323.626 507.646C321.449 510.26 319.991 513.285 319.254 516.723C318.527 520.165 318.494 523.511 319.165 526.764C319.25 527.173 319.327 527.579 319.405 527.984C319.489 528.394 319.637 528.844 319.848 529.344C321.184 529.174 322.497 528.989 323.783 528.792C325.075 528.586 326.335 528.352 327.557 528.098ZM328.442 554.337C333.332 559.076 338.974 562.654 345.365 565.074C349.012 566.447 354.832 567.187 359.162 567.569C362.936 567.902 366.726 567.595 370.451 566.907L371.704 566.676C376.257 565.837 380.649 564.286 384.719 562.082L408.209 581.213L402.977 584.885C396.159 589.671 388.548 593.217 380.496 595.361C373.935 597.107 367.15 597.97 360.387 597.361C354.564 596.836 347.553 595.9 343.049 594.263C334.154 591.03 326.25 586.269 319.337 579.986C312.419 573.704 306.907 566.471 302.795 558.288C306.97 557.97 310.435 557.659 313.193 557.362C315.958 557.057 318.514 556.666 320.861 556.194C322.083 555.94 323.322 555.662 324.582 555.352C325.849 555.047 327.138 554.71 328.442 554.337Z" fill="#010101"/>
<path d="M402.825 496.25C410.192 490.794 417.134 487.591 423.642 486.64C430.152 485.693 436.05 486.451 441.346 488.914C446.636 491.373 451.17 495.145 454.951 500.233C459.248 506.016 461.485 511.864 461.657 517.782C461.827 523.7 460.426 529.567 457.459 535.376C454.497 541.176 450.444 546.793 445.306 552.232C440.164 557.664 434.428 562.718 428.104 567.396C423.985 570.455 415.074 576.246 415.074 576.246L408.209 581.403L384.719 562.272L388.888 560.073C390.3 559.504 391.51 558.645 393.031 557.941C388.385 550.775 385.951 543.578 385.22 535.907C384.491 528.227 385.596 520.921 388.534 513.986C391.467 507.047 396.231 501.137 402.825 496.25ZM422.618 542.145C426.117 539.553 429.054 536.824 431.43 533.966C433.804 531.11 435.293 528.209 435.89 525.263C436.483 522.309 435.771 519.471 433.757 516.747C431.734 514.028 428.945 512.659 425.389 512.64C421.84 512.618 418.575 513.713 415.59 515.922C412.604 518.136 410.661 520.967 409.763 524.425C408.861 527.885 408.829 531.409 409.666 534.999C410.499 538.592 411.959 541.798 414.047 544.618C414.299 544.963 414.556 545.314 414.814 545.663C415.081 546.013 415.418 546.378 415.825 546.754C417.029 545.999 418.196 545.239 419.326 544.472C420.464 543.705 421.564 542.928 422.618 542.145ZM435.124 566.688C441.889 569.018 448.846 569.914 455.996 569.38C463.139 568.841 472.127 565.33 472.127 565.33L490.918 591.32C482.103 596.485 476.658 597.297 466.763 598.177C456.873 599.051 447.243 598.038 437.875 595.13C428.5 592.217 421.181 588.441 413.629 582.486C413.629 582.486 419.498 577.832 421.99 576.332C424.476 574.827 426.73 573.322 428.751 571.825C429.807 571.045 430.864 570.227 431.928 569.371C432.99 568.52 434.056 567.626 435.124 566.688Z" fill="#010101"/>
<path d="M561.427 458.16C562.657 462.952 563.227 468.871 563.139 475.91C563.06 482.953 562.153 490.596 560.42 498.837C558.682 507.069 555.853 515.476 551.925 524.054C548.005 532.623 542.931 540.995 536.698 549.166C530.474 557.329 518.63 570.24 518.63 570.24L518.3 570.562C510.064 578.582 500.867 585.554 490.918 591.32L472.126 565.331L475.042 563.735C482.631 559.581 488.965 553.469 493.384 546.036C491.121 541.664 488.872 536.606 486.635 530.856C484.406 525.112 482.127 517.701 479.802 508.63C477.452 499.444 476.222 490.071 476.109 480.509C476 470.952 477.108 461.972 479.433 453.578C481.758 445.184 485.309 437.997 490.076 432.016C494.844 426.026 500.939 421.996 508.359 419.932C517.534 417.379 525.655 417.357 532.719 419.862C539.791 422.358 545.718 426.918 550.498 433.537C555.274 440.148 558.918 448.358 561.427 458.16ZM516.669 524.771C522.029 517.636 525.945 510.413 528.421 503.104C530.893 495.785 532.266 488.834 532.535 482.258C532.803 475.683 532.37 470.187 531.241 465.767C528.228 454.007 523.255 449.084 516.317 451.008C513.014 451.93 510.579 454.252 509.014 457.968C507.444 461.675 506.521 466.2 506.244 471.538C505.975 476.868 506.214 482.481 506.966 488.379C507.726 494.281 508.779 499.864 510.122 505.132C511.096 508.936 512.128 512.485 513.228 515.782C514.323 519.083 515.469 522.078 516.669 524.771ZM532.817 562.973C541.547 575.328 550.922 576.973 560.826 580.458C570.74 583.946 577.968 584.501 587.382 583.321C586.899 592.464 587.926 601.623 590.419 610.433L591.383 613.842L572.865 614.309C548.458 614.925 525.365 603.291 511.355 583.321L512.917 582.237C520.555 576.94 527.276 570.433 532.817 562.973Z" fill="#010101"/>
<path d="M605.288 543.311C602.117 543.49 599.187 542.862 596.498 541.429C593.815 539.996 591.61 538.002 589.887 535.445C588.172 532.881 587.222 530.019 587.046 526.861C586.867 523.602 587.489 520.634 588.917 517.954C590.351 515.278 592.324 513.079 594.838 511.365C597.348 509.645 600.19 508.693 603.361 508.514C606.614 508.338 609.581 508.963 612.264 510.396C614.954 511.822 617.159 513.789 618.875 516.297C620.598 518.808 621.55 521.691 621.73 524.951C621.905 528.108 621.279 531.054 619.845 533.787C618.417 536.512 616.448 538.739 613.938 540.46C611.424 542.184 608.541 543.136 605.288 543.311ZM596.152 613.429C594.048 603.43 592.794 593.294 592.392 583.03C591.999 572.765 592.112 561.404 592.742 548.937L618.281 547.528C617.765 560.196 618.402 571.732 620.19 582.137C621.979 592.545 624.62 602.385 628.117 611.659L596.152 613.429Z" fill="#010101"/>
<path d="M689.262 534.797C696.506 534.402 702.22 536.212 706.404 540.216C710.595 544.213 713.38 549.78 714.755 556.915C716.139 564.042 716.229 572.153 715.028 581.243C713.834 590.327 711.444 599.782 707.859 609.599C704.271 619.417 699.652 628.997 694.005 638.334L660.252 640.544C663.192 635.87 666.072 630.677 668.891 624.966C671.71 619.251 674.306 613.472 676.681 607.616C679.054 601.753 680.975 596.118 682.441 590.706C683.903 585.297 684.734 580.441 684.927 576.141C685.128 571.834 684.502 568.481 683.048 566.089C681.6 563.698 679.061 562.599 675.423 562.789C668.944 563.152 663.893 565.832 660.267 570.828C656.636 575.816 654.916 581.872 655.098 588.995C655.825 592.265 656.636 595.607 657.538 599.017C658.448 602.431 659.542 605.86 660.828 609.312L635.303 610.72C629.854 596.065 626.262 582.515 624.527 570.071C622.799 557.619 624.776 545.41 627.16 532.844L658.963 530.694C657.72 534.176 656.648 537.79 655.75 541.534C654.859 545.269 654.135 549.073 653.583 552.948C657.038 547.812 661.646 543.573 667.405 540.231C673.172 536.881 680.459 535.069 689.262 534.797Z" fill="#010101"/>
<path d="M707.196 657.53C706.734 648.969 708.098 641.771 711.288 635.927C714.483 630.094 719.011 625.39 724.869 621.817C730.739 618.244 737.563 615.666 745.346 614.081C753.136 612.487 761.461 611.666 770.325 611.613C779.183 611.564 788.107 612.124 797.091 613.293C797.213 611.408 797.274 609.531 797.274 607.662C797.274 605.795 797.274 603.817 797.274 601.727C797.069 596.015 796.064 590.293 794.257 584.559C792.457 578.829 790.047 573.594 787.028 568.859C784.015 564.129 780.533 560.389 776.584 557.641C772.632 554.897 768.407 553.652 763.913 553.902C758.737 554.186 754.596 555.624 751.485 558.217C748.381 560.802 746.945 564.121 747.18 568.179C747.392 572.016 749.184 575.108 752.56 577.459C755.933 579.802 760.207 580.831 765.384 580.547C768.566 580.365 771.825 579.635 775.16 578.352C778.502 577.073 781.775 575.461 784.981 573.522C786.808 576.834 788.384 580.517 789.71 584.574C791.044 588.624 791.991 592.773 792.56 597.019C788.274 599.017 783.738 600.618 778.949 601.818C774.167 603.022 769.801 603.733 765.854 603.952C757.396 604.418 749.749 603.135 742.921 600.107C736.089 597.08 730.598 592.901 726.445 587.572C722.304 582.242 720.049 576.289 719.685 569.708C719.314 563.129 720.89 556.937 724.414 551.132C727.95 545.318 732.947 540.53 739.405 536.765C745.861 532.991 753.319 530.871 761.776 530.406C770.556 529.914 778.661 531.14 786.087 534.085C793.522 537.033 799.964 541.878 805.413 548.619C807.261 544.342 808.599 539.732 809.429 534.797C810.255 529.854 810.513 524.528 810.202 518.825L845.275 516.886C846.033 530.595 844.169 542.692 839.682 553.175C835.204 563.652 828.712 572.644 820.205 580.154C821.528 586.13 822.377 592.462 822.752 599.154C823.468 612.093 822.82 624.254 820.812 635.639C818.8 647.031 815.283 657.13 810.263 665.933C805.249 674.732 798.592 681.757 790.286 687.007C781.988 692.252 771.908 695.205 760.048 695.863C749.609 696.446 740.503 695.167 732.736 692.018C724.964 688.876 718.879 684.289 714.471 678.256C710.057 672.231 707.632 665.32 707.196 657.53ZM823.176 648.644C824.468 644.162 825.48 639.56 826.208 634.836C826.935 630.124 827.439 625.235 827.724 620.167C835.999 622.57 844.548 625.866 853.369 630.053C862.197 634.239 871.242 639.322 880.499 645.298L883 690.368C870.542 680.285 859.47 671.852 849.792 665.07C840.11 658.288 831.24 652.811 823.176 648.644ZM735.585 653.821C735.858 658.745 737.756 662.731 741.284 665.781C744.808 668.839 750.636 670.145 758.76 669.703C766.873 669.249 773.954 666.016 780.01 660.013C786.072 654.018 790.4 646.543 792.999 637.592C786.754 636.29 780.237 635.496 773.447 635.215C766.664 634.931 760.355 635.306 754.516 636.335C748.684 637.373 744.001 639.31 740.466 642.149C736.938 644.995 735.312 648.886 735.585 653.821Z" fill="#010101"/>
</svg>
