<svg width="601" height="836" viewBox="0 0 601 836" fill="none" xmlns="http://www.w3.org/2000/svg">
<path d="M228.77 126.566L224.793 143.888L214.066 137.839L228.77 126.566Z" fill="#488160"/>
<path d="M146.999 119.817L186.795 154.685C187.557 155.353 188.705 155.595 189.974 155.357C191.244 155.119 192.525 154.421 193.525 153.424L245.963 101.07C246.564 100.471 246.813 99.7017 246.592 99.1255C246.372 98.5493 245.727 98.2819 244.961 98.4487L146.999 119.817Z" fill="#75DA9F"/>
<path d="M228.013 118.431L146.999 117.76L219.414 127.165L218.519 132.016L228.013 118.431Z" fill="#488160"/>
<path d="M227.5 148.977C227.5 172.416 240.257 193.997 260.791 205.298L282.93 217.482C334.64 245.94 353.555 310.886 325.21 362.659L316.23 379.061C293.144 421.23 248.04 446.55 200.018 444.3L182.635 443.486C99.3887 439.586 28.2117 502.765 22.2074 585.887L21.0776 601.528C18.4308 638.169 27.7439 674.679 47.6181 705.575L54.1622 715.748C100.67 788.049 187.186 823.866 271.189 805.596L600.5 733.977" stroke="#858585" stroke-width="0.7" stroke-dasharray="13 13"/>
<path d="M2.46792 441.653L42.4913 553.041C43.8227 556.746 47.7785 558.799 51.5719 557.748C72.6821 551.898 138.384 533.421 174.616 520.17C178.714 518.672 180.972 514.288 179.828 510.077C174.009 488.669 156.564 426.514 143.8 402.215C141.738 398.29 137.219 396.34 132.939 397.495L7.90731 431.235C3.39829 432.451 0.888834 437.258 2.46792 441.653Z" fill="#99BAF8"/>
<path d="M93.5554 484.443C106.972 480.314 114.501 466.092 110.372 452.675C106.244 439.259 92.0209 431.73 78.6047 435.859C65.1885 439.987 57.6593 454.21 61.7878 467.626C65.9164 481.042 80.1392 488.571 93.5554 484.443Z" fill="#010101"/>
<path d="M71.1303 542.826L148.522 519.011C153.267 517.55 154.498 511.436 150.712 508.224C140.973 499.961 122.569 489.082 98.9594 497.094C76.2045 504.816 66.7976 522.653 62.9697 534.547C61.3445 539.597 66.0606 544.386 71.1303 542.826Z" fill="#010101"/>
<path d="M282.876 254.388L301.308 258.577L307.995 260.262L320.095 263.31L328.693 265.476L367.582 270.315L399.129 270.68C411.232 270.82 420.187 281.988 417.693 293.832L410.106 315.876L407.465 325.094C406.036 330.084 405.181 335.22 404.916 340.404L403.883 360.606C403.591 366.325 400.972 371.675 396.635 375.413C391.542 379.803 384.653 381.484 378.111 379.932L337.124 370.211C331.105 368.784 324.971 367.899 318.794 367.567L271.232 365.015C263.508 364.053 258.025 357.012 258.986 349.287L263.946 309.431C264.731 303.116 263.92 296.705 261.586 290.785L260.62 288.335C258.92 284.023 258.329 279.352 258.902 274.752L259.385 270.868C260.094 265.169 263.298 260.079 268.13 256.976C272.499 254.17 277.812 253.237 282.876 254.388Z" fill="#CCB8FF"/>
<ellipse cx="314.751" cy="304.586" rx="10.6763" ry="13.6419" transform="rotate(-82.9066 314.751 304.586)" fill="white"/>
<mask id="mask0_1042_130" style="mask-type:alpha" maskUnits="userSpaceOnUse" x="301" y="293" width="28" height="23">
<ellipse cx="314.751" cy="304.587" rx="10.6763" ry="13.6419" transform="rotate(-82.9066 314.751 304.587)" fill="white"/>
</mask>
<g mask="url(#mask0_1042_130)">
<ellipse cx="316.176" cy="311.253" rx="8.75088" ry="8.74176" transform="rotate(-82.9066 316.176 311.253)" fill="#010101"/>
</g>
<circle cx="309.821" cy="303.906" r="3.54963" transform="rotate(-82.9066 309.821 303.906)" fill="white" fill-opacity="0.26"/>
<ellipse cx="357.992" cy="309.969" rx="10.6763" ry="13.6419" transform="rotate(-82.9066 357.992 309.969)" fill="white"/>
<mask id="mask1_1042_130" style="mask-type:alpha" maskUnits="userSpaceOnUse" x="344" y="299" width="28" height="22">
<ellipse cx="357.99" cy="309.969" rx="10.6763" ry="13.6419" transform="rotate(-82.9066 357.99 309.969)" fill="white"/>
</mask>
<g mask="url(#mask1_1042_130)">
<ellipse cx="357.719" cy="317.608" rx="8.75088" ry="8.74176" transform="rotate(-82.9066 357.719 317.608)" fill="#010101"/>
</g>
<circle cx="363.12" cy="311.89" r="3.54963" transform="rotate(-82.9066 363.12 311.89)" fill="white" fill-opacity="0.26"/>
<path d="M346.147 342.683L345.641 343.028C336.256 349.427 323.94 349.542 314.437 343.32" stroke="#88819A" stroke-width="3" stroke-linecap="round"/>
<path d="M311.356 266.55C312.447 257.118 321.507 250.738 330.756 252.889L341.615 255.414L356.483 257.236C363.514 258.098 368.683 264.25 368.318 271.325L360.941 271.254C361.851 267.343 359.203 263.495 355.225 262.948L351.488 262.434L340.339 260.901L330.045 258.507C323.954 257.09 318.276 262.083 318.902 268.305L311.356 266.55Z" fill="#CCB8FF"/>
</svg>
